<svg xmlns="http://www.w3.org/2000/svg" viewBox="0 0 1200 700" role="img" aria-labelledby="title desc">
  <title id="title">Ilustración salud mental</title>
  <desc id="desc">Cabeza abstracta con corazón y cronómetro</desc>
  <defs>
    <linearGradient id="bg" x1="0" x2="1" y1="0" y2="1">
      <stop offset="0%" stop-color="#140a74"/>
      <stop offset="50%" stop-color="#3147bf"/>
      <stop offset="100%" stop-color="#2191ff"/>
    </linearGradient>
    <filter id="shadow" x="-50%" y="-50%" width="200%" height="200%">
      <feDropShadow dx="0" dy="14" stdDeviation="16" flood-color="#07134b" flood-opacity="0.38"/>
    </filter>
  </defs>

  <rect width="1200" height="700" fill="url(#bg)"/>
  <ellipse cx="1045" cy="118" rx="230" ry="130" fill="#7a5fff" opacity="0.2"/>
  <ellipse cx="160" cy="590" rx="250" ry="125" fill="#6ecfff" opacity="0.18"/>
  <path d="M-40 510c260-86 440 74 700 14 130-30 298-42 540-70v246H-40z" fill="#9adfff" opacity="0.18"/>

  <g filter="url(#shadow)">
    <circle cx="420" cy="346" r="146" fill="#f7fbff" fill-opacity="0.14"/>
    <path d="M366 251c-42 25-71 75-71 132 0 78 55 141 123 141 31 0 61-13 84-36" fill="none" stroke="#f7fbff" stroke-width="14" stroke-linecap="round"/>
    <path d="M492 253c38 24 63 72 63 124" fill="none" stroke="#f7fbff" stroke-width="14" stroke-linecap="round"/>

    <path d="M402 332c11-19 37-26 55-13 8 6 13 14 15 24 3-10 7-18 15-24 18-13 44-6 55 13 12 20 6 45-16 61l-54 39-54-39c-22-16-28-41-16-61z" fill="#f7fbff"/>

    <circle cx="785" cy="285" r="68" fill="#f7fbff" fill-opacity="0.2"/>
    <circle cx="785" cy="285" r="44" fill="none" stroke="#f7fbff" stroke-width="9"/>
    <line x1="785" y1="285" x2="785" y2="257" stroke="#f7fbff" stroke-width="8" stroke-linecap="round"/>
    <line x1="785" y1="285" x2="810" y2="297" stroke="#f7fbff" stroke-width="8" stroke-linecap="round"/>
    <rect x="770" y="204" width="30" height="16" rx="8" fill="#f7fbff"/>

    <path d="M330 552h350" stroke="#f7fbff" stroke-opacity="0.78" stroke-width="10" stroke-linecap="round"/>
  </g>
</svg>
