<svg xmlns="http://www.w3.org/2000/svg" viewBox="0 0 1200 700" role="img" aria-labelledby="title desc">
  <title id="title">Ilustración autoestima</title>
  <desc id="desc">Figura abstracta con flecha ascendente y estrella</desc>
  <defs>
    <linearGradient id="bg" x1="0" x2="1" y1="0" y2="1">
      <stop offset="0%" stop-color="#120a73"/>
      <stop offset="52%" stop-color="#3147be"/>
      <stop offset="100%" stop-color="#2394ff"/>
    </linearGradient>
    <filter id="shadow" x="-50%" y="-50%" width="200%" height="200%">
      <feDropShadow dx="0" dy="15" stdDeviation="16" flood-color="#061349" flood-opacity="0.4"/>
    </filter>
  </defs>

  <rect width="1200" height="700" fill="url(#bg)"/>
  <ellipse cx="260" cy="140" rx="230" ry="120" fill="#6d5fff" opacity="0.22"/>
  <ellipse cx="1010" cy="560" rx="250" ry="130" fill="#79d1ff" opacity="0.18"/>
  <path d="M-50 510c233-68 430 80 700 18 154-35 340-56 560-82v254H-50z" fill="#9ee1ff" opacity="0.18"/>

  <g filter="url(#shadow)">
    <circle cx="360" cy="292" r="52" fill="#f8fbff" fill-opacity="0.92"/>
    <path d="M278 463c0-46 37-84 82-84s82 38 82 84" fill="none" stroke="#f8fbff" stroke-width="16" stroke-linecap="round"/>

    <path d="M560 500l190-194" stroke="#f8fbff" stroke-width="14" stroke-linecap="round"/>
    <path d="M676 306h74v73" fill="none" stroke="#f8fbff" stroke-width="14" stroke-linecap="round" stroke-linejoin="round"/>

    <path d="M887 248l15 34 37 3-28 24 8 36-32-19-32 19 8-36-28-24 37-3z" fill="#f8fbff"/>

    <rect x="515" y="364" width="290" height="176" rx="24" fill="#f8fbff" fill-opacity="0.12"/>
    <line x1="562" y1="422" x2="706" y2="422" stroke="#f8fbff" stroke-width="10" stroke-linecap="round"/>
    <line x1="562" y1="463" x2="674" y2="463" stroke="#f8fbff" stroke-width="10" stroke-linecap="round"/>
  </g>
</svg>
