<svg xmlns="http://www.w3.org/2000/svg" viewBox="0 0 1200 700" role="img" aria-labelledby="title desc">
  <title id="title">Ilustracion pareja</title>
  <desc id="desc">Composicion abstracta para articulo de pareja</desc>
  <defs>
    <linearGradient id="bg" x1="0" x2="1" y1="0" y2="1">
      <stop offset="0%" stop-color="#140a74" />
      <stop offset="48%" stop-color="#2d3fb8" />
      <stop offset="100%" stop-color="#1b89fb" />
    </linearGradient>
    <filter id="shadow" x="-50%" y="-50%" width="200%" height="200%">
      <feDropShadow dx="0" dy="14" stdDeviation="16" flood-color="#06124a" flood-opacity="0.38" />
    </filter>
  </defs>

  <rect width="1200" height="700" fill="url(#bg)" />
  <ellipse cx="215" cy="120" rx="220" ry="125" fill="#6a6fff" opacity="0.2" />
  <ellipse cx="1020" cy="570" rx="230" ry="120" fill="#79d2ff" opacity="0.18" />
  <path d="M-60 500 C 175 450 300 560 505 515 C 704 475 850 505 1240 450 L1240 700 L-60 700 Z" fill="#7fd7ff" opacity="0.19" />

  <g filter="url(#shadow)">
    <rect x="290" y="220" rx="52" ry="52" width="295" height="200" fill="#f6fbff" fill-opacity="0.15" />
    <rect x="615" y="260" rx="52" ry="52" width="295" height="200" fill="#f6fbff" fill-opacity="0.15" />
    <path d="M375 292h127M375 335h84" stroke="#f7fbff" stroke-width="12" stroke-linecap="round" stroke-opacity="0.92" />
    <path d="M700 332h122M700 374h78" stroke="#f7fbff" stroke-width="12" stroke-linecap="round" stroke-opacity="0.92" />
    <circle cx="430" cy="490" r="40" fill="#f7fbff" fill-opacity="0.95" />
    <circle cx="762" cy="520" r="40" fill="#f7fbff" fill-opacity="0.95" />
    <path d="M486 500c48-24 98-24 145 0" fill="none" stroke="#f7fbff" stroke-width="11" stroke-linecap="round" />
    <path d="M547 476c9-16 31-22 46-10 7 5 11 11 13 19 2-8 6-14 13-19 15-12 37-6 46 10 10 17 5 38-13 52l-46 34-46-34c-18-14-23-35-13-52z" fill="#f7fbff" fill-opacity="0.95" />
  </g>
</svg>
